<?xml version="1.0" encoding="utf-8"?>
<!-- Generator: Adobe Illustrator 25.4.1, SVG Export Plug-In . SVG Version: 6.00 Build 0)  -->
<svg version="1.1" id="Layer_1" xmlns="http://www.w3.org/2000/svg" xmlns:xlink="http://www.w3.org/1999/xlink" x="0px" y="0px"
	 viewBox="0 0 512 512" style="enable-background:new 0 0 512 512;" xml:space="preserve">
<style type="text/css">
	.st0{fill:url(#SVGID_1_);}
</style>
<linearGradient id="SVGID_1_" gradientUnits="userSpaceOnUse" x1="256.0091" y1="1.9979" x2="256.0091" y2="599.0079" gradientTransform="matrix(1 0 0 -1 0 514)">
	<stop  offset="0" style="stop-color:#FFFFFF"/>
	<stop  offset="1" style="stop-color:#FFFFFF"/>
</linearGradient>
<path class="st0" d="M503.4,438.3l-152-152.2c17.3-28.9,26.5-61.8,26.8-95.5C378.9,86.1,294.8,0.8,190.4,0S0.8,83.4,0,188
	s83.3,189.9,187.7,190.6c34.8,0.2,69.1-9.2,98.8-27.3l151.9,152.1c11.6,11.5,30.2,11.5,41.8,0l23.2-23.2
	C514.9,468.6,514.9,449.9,503.4,438.3z M188,335.3c-80.5-0.5-145.3-66.4-144.8-147s66.3-145.5,146.8-145s145.3,66.4,144.8,147
	C334.3,270.9,268.6,335.7,188,335.3z"/>
</svg>
